<svg xmlns="http://www.w3.org/2000/svg" xmlns:xlink="http://www.w3.org/1999/xlink" version="1.1" x="0px" y="0px" viewBox="0 0 100 100" enable-background="new 0 0 100 100" xml:space="preserve"><path d="M94.883,69.494c-0.23,1.553-0.23,2.416-0.576,3.048c-0.345,0.634-0.517,1.668-1.839,2.187  c-1.324,0.517-14.378,3.623-15.526,3.911c-1.151,0.286-1.338,0.07-1.582,0c-0.244-0.072-1.727-0.116-2.474-0.029  c-0.081,0.009-0.33,0.033-0.706,0.068l0.009,0.075c0,0-13.803,1.227-21.929,1.227c-0.085,0-0.174-0.002-0.26-0.002  s-0.175,0.002-0.26,0.002c-8.127,0-21.929-1.227-21.929-1.227l0.008-0.075c-0.376-0.035-0.625-0.06-0.707-0.068  c-0.748-0.087-2.229-0.043-2.473,0.029c-0.244,0.07-0.431,0.286-1.581,0c-1.15-0.288-14.205-3.395-15.526-3.911  c-1.323-0.519-1.495-1.553-1.84-2.187c-0.345-0.632-0.345-1.495-0.575-3.048s-0.058-8.913,0-10.696  c0.058-1.782,0.69-7.765,0.862-9.373c0.172-1.611,1.38-5.119,2.185-5.808c0.806-0.689,1.898-1.38,3.106-2.3  c1.207-0.92,6.555-4.083,7.015-4.485c0.46-0.404,0.862-0.806,0.345-1.358s-0.862-0.138-1.322-0.022  c-0.459,0.115-2.76-0.23-3.853-0.575s-1.035-0.978-0.806-1.955c0.23-0.978,0.576-1.322,1.323-1.61  c0.748-0.288,1.495-0.459,2.875-0.632c1.38-0.173,1.38,0.287,1.897,1.495c0.519,1.208,0.519,2.358,1.035,2.416  c0.518,0.058,1.323-2.473,3.507-6.153c2.187-3.681,5.062-6.614,6.959-7.13c1.561-0.426,8.701-1.02,15.625-1.217  c1.255-0.042,2.55-0.067,3.867-0.067c0.085,0,0.173,0.001,0.26,0.001c0.086,0,0.174-0.001,0.26-0.001  c1.316,0,2.612,0.026,3.867,0.067c6.923,0.197,14.063,0.791,15.624,1.217c1.898,0.517,4.773,3.449,6.959,7.13  c2.185,3.68,2.989,6.21,3.507,6.153c0.519-0.058,0.519-1.208,1.035-2.416c0.518-1.208,0.518-1.668,1.897-1.495  c1.379,0.172,2.128,0.345,2.875,0.632c0.747,0.288,1.093,0.633,1.322,1.61c0.23,0.977,0.287,1.61-0.806,1.955  c-1.092,0.345-3.393,0.69-3.852,0.575c-0.461-0.115-0.807-0.53-1.323,0.022s-0.114,0.955,0.346,1.358  c0.459,0.402,5.808,3.564,7.016,4.485c1.207,0.919,2.3,1.61,3.104,2.3c0.805,0.69,2.013,4.198,2.187,5.808  c0.17,1.608,0.804,7.591,0.862,9.373C94.94,60.581,95.113,67.941,94.883,69.494z M91.144,45.055c0,0-7.015,2.013-11.788,4.198  c-4.773,2.185-5.635,4.83-5.635,4.83s3.009,1.151,3.757,1.323c0.747,0.172,2.051,0.039,3.872-0.383  c1.819-0.423,2.988-0.748,3.775-0.901c0.786-0.154,1.15-0.211,1.821,0.02c0.671,0.229,0.767,0.497,1.591,0.152  c0.824-0.346,3.528-1.571,3.528-3.507c0-1.936,0.075-2.166-0.23-3.317C91.529,46.32,91.144,45.055,91.144,45.055z M8.191,47.469  c-0.307,1.15-0.23,1.38-0.23,3.317c0,1.937,2.703,3.162,3.527,3.507c0.823,0.344,0.919,0.077,1.591-0.153  c0.672-0.23,1.035-0.172,1.822-0.019c0.786,0.153,1.955,0.479,3.775,0.901c1.82,0.422,3.125,0.555,3.873,0.383  c0.748-0.171,3.756-1.323,3.756-1.323s-0.862-2.645-5.635-4.83c-4.773-2.185-11.789-4.198-11.789-4.198S8.497,46.32,8.191,47.469z   M77.919,63.916c0-6.393-12.942-8.623-24.136-9.018c-0.036-0.001-0.072-0.003-0.109-0.005c-0.225-0.007-0.448-0.014-0.673-0.021  c-0.239-0.007-0.479-0.013-0.717-0.018c-0.031-0.002-0.063-0.002-0.094-0.002c-0.679-0.016-1.354-0.023-2.02-0.023  c-0.029,0-0.057,0-0.085,0c-0.028,0-0.057,0-0.085,0c-0.665,0-1.339,0.009-2.019,0.023c-0.031,0-0.062,0-0.093,0.002  c-0.239,0.005-0.479,0.011-0.718,0.018c-0.224,0.008-0.447,0.014-0.672,0.021c-0.037,0.002-0.074,0.004-0.11,0.005  c-11.194,0.395-24.135,2.625-24.135,9.018c0,7.092,10.068,7.358,27.63,7.361c0.04,0,0.078,0,0.119,0c0.029,0,0.057,0,0.085,0  s0.057,0,0.085,0c0.04,0,0.078,0,0.119,0C67.85,71.274,77.919,71.008,77.919,63.916z M48.072,57.592c0,0,0.171,0.69,0.748,1.667  c0.576,0.978,1.352,1.554,1.352,1.554s1.006-0.861,1.639-1.783c0.632-0.919,0.928-1.438,0.928-1.438l16.095-0.402  c0,0-9.834-1.709-18.748-1.709s-18.575,1.709-18.575,1.709L48.072,57.592z M6.726,63.169c0,0-0.144,1.984,0.145,3.623  c0.287,1.639,1.15,2.874,1.639,3.507c0.488,0.632,2.991,1.754,3.853,1.84c0.862,0.087,1.897-0.286,2.904-0.086  c1.006,0.202,5.578,1.581,6.986,2.041c1.409,0.461,0.604-1.694,0.172-2.817c-0.431-1.12-0.948-2.186-1.667-2.559  c-0.719-0.375-3.623-1.696-6.211-2.444c-2.587-0.748-7.82-3.221-7.82-3.221 M92.823,63.054c0,0-5.233,2.473-7.821,3.221  c-2.587,0.748-5.492,2.069-6.209,2.444c-0.72,0.373-1.236,1.438-1.669,2.559c-0.431,1.122-1.235,3.278,0.172,2.818  c1.408-0.461,5.982-1.841,6.987-2.042c1.007-0.201,2.043,0.172,2.904,0.087c0.863-0.087,3.364-1.209,3.853-1.84  c0.49-0.633,1.352-1.87,1.64-3.508c0.287-1.64,0.144-3.623,0.144-3.623 M73.949,72.198c0,0-17.443,1.005-23.936,1.032  c-6.493-0.027-23.937-1.032-23.937-1.032s-0.288,2.472,0.978,2.759c0.818,0.187,8.013,0.636,14.471,0.932l-0.003,0.051  c0,0,2.755,0.226,8.218,0.226c0.085,0,0.182-0.001,0.274-0.002c0.091,0.001,0.187,0.002,0.273,0.002  c5.435,0,7.965-0.264,7.991-0.266c6.515-0.295,13.867-0.755,14.695-0.942C74.237,74.67,73.949,72.198,73.949,72.198z M75.503,30.755  c-1.304-2.991-3.296-5.904-3.91-6.67c-0.614-0.768-0.614-0.844-3.296-1.228c-1.66-0.236-7.444-0.356-12.185-0.45v-0.164  c0,0-3.296-0.153-5.673,0c-0.097,0.006-0.218,0.011-0.35,0.018c-0.131-0.006-0.253-0.012-0.349-0.018c-2.377-0.153-5.673,0-5.673,0  v0.164c-4.74,0.093-10.524,0.213-12.184,0.45c-2.683,0.384-2.683,0.46-3.295,1.228c-0.615,0.767-2.607,3.68-3.911,6.67  c-1.305,2.991-0.229,2.838,1.783,3.067c1.986,0.227,19.069,0.229,23.54,0.229c0.055,0,0.121,0,0.18,0  c4.472,0,21.554-0.002,23.54-0.229C75.732,33.593,76.807,33.745,75.503,30.755z"></path></svg>